<svg width="32" height="32" viewBox="0 0 32 32" fill="none" xmlns="http://www.w3.org/2000/svg">
<path d="M4.48269 19.2384L8.35045 19.2384C9.41676 19.2383 10.2843 18.3708 10.2843 17.3045L10.2843 15.5464C10.2843 14.7386 10.9417 14.0815 11.7491 14.0814L19.3726 14.0846C20.1823 14.0846 20.8376 14.7398 20.8376 15.5497C20.8376 15.8328 20.8376 16.646 20.8376 17.3077C20.8376 18.3693 21.695 19.2416 22.7725 19.2416L26.6332 19.2355C27.6995 19.2355 28.567 18.3679 28.567 17.3044C28.5705 16.5121 28.5716 16.2565 28.5731 15.9012C28.5731 12.0559 25.4448 8.92755 21.5996 8.92755L9.52252 8.92439C5.66816 8.92436 2.54884 12.0434 2.54887 15.898L2.54884 17.3045C2.54884 18.3709 3.41635 19.2384 4.48269 19.2384ZM27.2778 17.3016C27.2778 17.6571 26.9887 17.9462 26.6322 17.9463L22.7715 17.9524C22.4152 17.9524 22.1269 17.6641 22.1269 17.3077L22.1269 16.6631L27.2806 16.6631L27.2778 17.3016ZM9.52231 10.2137L21.5995 10.2168C24.5745 10.2168 26.992 12.4708 27.2594 15.3738L22.1207 15.3738C22.0305 13.9334 20.8361 12.7953 19.3728 12.7953L11.7497 12.7921C11.7496 12.7921 11.7495 12.7921 11.7494 12.7921C10.2876 12.7921 9.09153 13.9283 9.00129 15.3706H3.86247C4.12708 12.4749 6.5268 10.2137 9.52231 10.2137ZM3.83804 17.3046V16.6599L8.99506 16.6599L8.99509 17.3045C8.99506 17.66 8.70594 17.9491 8.35045 17.9491H4.48269C4.1272 17.9491 3.83801 17.66 3.83804 17.3046Z" fill="white"/>
</svg>
