<?xml version="1.0"?>
<svg xmlns="http://www.w3.org/2000/svg" xmlns:xlink="http://www.w3.org/1999/xlink" xmlns:svgjs="http://svgjs.com/svgjs" version="1.1" width="512" height="512" x="0" y="0" viewBox="0 0 330 330" style="enable-background:new 0 0 512 512" xml:space="preserve" class=""><g>
<g xmlns="http://www.w3.org/2000/svg">
	<path d="M245.608,84.392c-5.856-5.857-15.355-5.858-21.213-0.001c-5.857,5.858-5.858,15.355,0,21.213L268.789,150H85.002   c-8.284,0-15,6.716-15,15s6.716,15,15,15h183.785l-44.392,44.392c-5.858,5.858-5.858,15.355,0,21.213   c2.929,2.929,6.768,4.393,10.607,4.393c3.839,0,7.678-1.464,10.606-4.393l69.998-69.998c5.858-5.857,5.858-15.355,0-21.213   L245.608,84.392z" fill="#ffffff" data-original="#000000" style="" class=""/>
	<path d="M155,330c8.284,0,15-6.716,15-15s-6.716-15-15-15H40V30h115c8.284,0,15-6.716,15-15s-6.716-15-15-15H25   c-8.284,0-15,6.716-15,15v300c0,8.284,6.716,15,15,15H155z" fill="#ffffff" data-original="#000000" style="" class=""/>
</g>
<g xmlns="http://www.w3.org/2000/svg">
</g>
<g xmlns="http://www.w3.org/2000/svg">
</g>
<g xmlns="http://www.w3.org/2000/svg">
</g>
<g xmlns="http://www.w3.org/2000/svg">
</g>
<g xmlns="http://www.w3.org/2000/svg">
</g>
<g xmlns="http://www.w3.org/2000/svg">
</g>
<g xmlns="http://www.w3.org/2000/svg">
</g>
<g xmlns="http://www.w3.org/2000/svg">
</g>
<g xmlns="http://www.w3.org/2000/svg">
</g>
<g xmlns="http://www.w3.org/2000/svg">
</g>
<g xmlns="http://www.w3.org/2000/svg">
</g>
<g xmlns="http://www.w3.org/2000/svg">
</g>
<g xmlns="http://www.w3.org/2000/svg">
</g>
<g xmlns="http://www.w3.org/2000/svg">
</g>
<g xmlns="http://www.w3.org/2000/svg">
</g>
</g></svg>
